<mxfile host="app.diagrams.net" agent="Mozilla/5.0 (Windows NT 10.0; Win64; x64) AppleWebKit/537.36 (KHTML, like Gecko) Chrome/132.0.0.0 Safari/537.36" version="26.0.14">
  <diagram name="Halaman-1" id="NpikI4SP1XsP5ROT6Kz0">
    <mxGraphModel dx="2591" dy="916" grid="1" gridSize="10" guides="1" tooltips="1" connect="1" arrows="1" fold="1" page="1" pageScale="1" pageWidth="827" pageHeight="1169" math="0" shadow="0">
      <root>
        <mxCell id="0" />
        <mxCell id="1" parent="0" />
        <mxCell id="M1R4KqAEDVB002fNjqC0-102" style="rounded=0;orthogonalLoop=1;jettySize=auto;html=1;exitX=0.5;exitY=0;exitDx=0;exitDy=0;entryX=0.5;entryY=1;entryDx=0;entryDy=0;" edge="1" parent="1" source="M1R4KqAEDVB002fNjqC0-96" target="M1R4KqAEDVB002fNjqC0-28">
          <mxGeometry relative="1" as="geometry" />
        </mxCell>
        <mxCell id="M1R4KqAEDVB002fNjqC0-96" value="CRUD AREA" style="rounded=0;whiteSpace=wrap;html=1;align=center;fontStyle=1;labelPosition=center;verticalLabelPosition=top;verticalAlign=bottom;fillColor=#fff2cc;strokeColor=#d6b656;" vertex="1" parent="1">
          <mxGeometry x="-120" y="640" width="1100" height="120" as="geometry" />
        </mxCell>
        <mxCell id="M1R4KqAEDVB002fNjqC0-67" style="rounded=0;orthogonalLoop=1;jettySize=auto;html=1;exitX=0.5;exitY=0.5;exitDx=0;exitDy=0;exitPerimeter=0;entryX=0;entryY=0.5;entryDx=0;entryDy=0;dashed=1;" edge="1" parent="1" source="M1R4KqAEDVB002fNjqC0-5" target="M1R4KqAEDVB002fNjqC0-26">
          <mxGeometry relative="1" as="geometry" />
        </mxCell>
        <mxCell id="M1R4KqAEDVB002fNjqC0-5" value="APPROVEP" style="shape=umlActor;verticalLabelPosition=bottom;verticalAlign=top;html=1;outlineConnect=0;fillColor=#cdeb8b;strokeColor=#36393d;" vertex="1" parent="1">
          <mxGeometry x="-265" y="130" width="40" height="80" as="geometry" />
        </mxCell>
        <mxCell id="M1R4KqAEDVB002fNjqC0-70" style="rounded=0;orthogonalLoop=1;jettySize=auto;html=1;exitX=0.5;exitY=0;exitDx=0;exitDy=0;exitPerimeter=0;entryX=0.5;entryY=1;entryDx=0;entryDy=0;dashed=1;" edge="1" parent="1" source="M1R4KqAEDVB002fNjqC0-9" target="M1R4KqAEDVB002fNjqC0-16">
          <mxGeometry relative="1" as="geometry" />
        </mxCell>
        <mxCell id="M1R4KqAEDVB002fNjqC0-71" style="rounded=0;orthogonalLoop=1;jettySize=auto;html=1;exitX=0.5;exitY=0;exitDx=0;exitDy=0;exitPerimeter=0;entryX=0.5;entryY=1;entryDx=0;entryDy=0;dashed=1;" edge="1" parent="1" source="M1R4KqAEDVB002fNjqC0-9" target="M1R4KqAEDVB002fNjqC0-18">
          <mxGeometry relative="1" as="geometry" />
        </mxCell>
        <mxCell id="M1R4KqAEDVB002fNjqC0-72" style="rounded=0;orthogonalLoop=1;jettySize=auto;html=1;exitX=0.5;exitY=0;exitDx=0;exitDy=0;exitPerimeter=0;entryX=0.5;entryY=1;entryDx=0;entryDy=0;dashed=1;" edge="1" parent="1" source="M1R4KqAEDVB002fNjqC0-9" target="M1R4KqAEDVB002fNjqC0-15">
          <mxGeometry relative="1" as="geometry" />
        </mxCell>
        <mxCell id="M1R4KqAEDVB002fNjqC0-73" style="rounded=0;orthogonalLoop=1;jettySize=auto;html=1;exitX=0.5;exitY=0;exitDx=0;exitDy=0;exitPerimeter=0;entryX=0.5;entryY=1;entryDx=0;entryDy=0;dashed=1;" edge="1" parent="1" source="M1R4KqAEDVB002fNjqC0-9" target="M1R4KqAEDVB002fNjqC0-14">
          <mxGeometry relative="1" as="geometry" />
        </mxCell>
        <mxCell id="M1R4KqAEDVB002fNjqC0-74" style="rounded=0;orthogonalLoop=1;jettySize=auto;html=1;exitX=0.5;exitY=0;exitDx=0;exitDy=0;exitPerimeter=0;entryX=0.5;entryY=1;entryDx=0;entryDy=0;dashed=1;" edge="1" parent="1" source="M1R4KqAEDVB002fNjqC0-9" target="M1R4KqAEDVB002fNjqC0-21">
          <mxGeometry relative="1" as="geometry" />
        </mxCell>
        <mxCell id="M1R4KqAEDVB002fNjqC0-75" style="rounded=0;orthogonalLoop=1;jettySize=auto;html=1;exitX=0.5;exitY=0;exitDx=0;exitDy=0;exitPerimeter=0;entryX=0.5;entryY=1;entryDx=0;entryDy=0;dashed=1;" edge="1" parent="1" source="M1R4KqAEDVB002fNjqC0-9" target="M1R4KqAEDVB002fNjqC0-17">
          <mxGeometry relative="1" as="geometry" />
        </mxCell>
        <mxCell id="M1R4KqAEDVB002fNjqC0-76" style="rounded=0;orthogonalLoop=1;jettySize=auto;html=1;exitX=0.5;exitY=0;exitDx=0;exitDy=0;exitPerimeter=0;entryX=0.5;entryY=1;entryDx=0;entryDy=0;dashed=1;" edge="1" parent="1" source="M1R4KqAEDVB002fNjqC0-9" target="M1R4KqAEDVB002fNjqC0-19">
          <mxGeometry relative="1" as="geometry" />
        </mxCell>
        <mxCell id="M1R4KqAEDVB002fNjqC0-77" style="rounded=0;orthogonalLoop=1;jettySize=auto;html=1;exitX=0.5;exitY=0;exitDx=0;exitDy=0;exitPerimeter=0;entryX=0.5;entryY=1;entryDx=0;entryDy=0;dashed=1;" edge="1" parent="1" source="M1R4KqAEDVB002fNjqC0-9" target="M1R4KqAEDVB002fNjqC0-20">
          <mxGeometry relative="1" as="geometry" />
        </mxCell>
        <mxCell id="M1R4KqAEDVB002fNjqC0-9" value="ADMIN" style="shape=umlActor;verticalLabelPosition=bottom;verticalAlign=top;html=1;outlineConnect=0;fillColor=#fa6800;fontColor=#000000;strokeColor=#C73500;" vertex="1" parent="1">
          <mxGeometry x="393" y="880" width="40" height="80" as="geometry" />
        </mxCell>
        <mxCell id="M1R4KqAEDVB002fNjqC0-69" style="rounded=0;orthogonalLoop=1;jettySize=auto;html=1;exitX=0.5;exitY=0.5;exitDx=0;exitDy=0;exitPerimeter=0;entryX=1;entryY=0.5;entryDx=0;entryDy=0;dashed=1;" edge="1" parent="1" source="M1R4KqAEDVB002fNjqC0-10" target="M1R4KqAEDVB002fNjqC0-28">
          <mxGeometry relative="1" as="geometry" />
        </mxCell>
        <mxCell id="M1R4KqAEDVB002fNjqC0-10" value="RECEIVING" style="shape=umlActor;verticalLabelPosition=bottom;verticalAlign=top;html=1;outlineConnect=0;fillColor=#e51400;fontColor=#ffffff;strokeColor=#B20000;" vertex="1" parent="1">
          <mxGeometry x="1080" y="480" width="40" height="80" as="geometry" />
        </mxCell>
        <mxCell id="M1R4KqAEDVB002fNjqC0-66" style="rounded=0;orthogonalLoop=1;jettySize=auto;html=1;exitX=0.5;exitY=0.5;exitDx=0;exitDy=0;exitPerimeter=0;entryX=0;entryY=0.5;entryDx=0;entryDy=0;dashed=1;" edge="1" parent="1" source="M1R4KqAEDVB002fNjqC0-11" target="M1R4KqAEDVB002fNjqC0-29">
          <mxGeometry relative="1" as="geometry" />
        </mxCell>
        <mxCell id="M1R4KqAEDVB002fNjqC0-11" value="Senior Analyst" style="shape=umlActor;verticalLabelPosition=bottom;verticalAlign=top;html=1;outlineConnect=0;fillColor=#008a00;fontColor=#ffffff;strokeColor=#005700;" vertex="1" parent="1">
          <mxGeometry x="-265" y="480" width="40" height="80" as="geometry" />
        </mxCell>
        <mxCell id="M1R4KqAEDVB002fNjqC0-68" style="rounded=0;orthogonalLoop=1;jettySize=auto;html=1;exitX=0.5;exitY=0.5;exitDx=0;exitDy=0;exitPerimeter=0;entryX=1;entryY=0.5;entryDx=0;entryDy=0;dashed=1;" edge="1" parent="1" source="M1R4KqAEDVB002fNjqC0-12" target="M1R4KqAEDVB002fNjqC0-27">
          <mxGeometry relative="1" as="geometry" />
        </mxCell>
        <mxCell id="M1R4KqAEDVB002fNjqC0-12" value="DATA LOADER" style="shape=umlActor;verticalLabelPosition=bottom;verticalAlign=top;html=1;outlineConnect=0;fillColor=#e3c800;fontColor=#000000;strokeColor=#B09500;" vertex="1" parent="1">
          <mxGeometry x="1080" y="130" width="40" height="80" as="geometry" />
        </mxCell>
        <mxCell id="M1R4KqAEDVB002fNjqC0-92" style="rounded=0;orthogonalLoop=1;jettySize=auto;html=1;exitX=0.5;exitY=0;exitDx=0;exitDy=0;entryX=0.5;entryY=1;entryDx=0;entryDy=0;dashed=1;" edge="1" parent="1" source="M1R4KqAEDVB002fNjqC0-14" target="M1R4KqAEDVB002fNjqC0-50">
          <mxGeometry relative="1" as="geometry" />
        </mxCell>
        <mxCell id="M1R4KqAEDVB002fNjqC0-14" value="ANALYTE" style="ellipse;whiteSpace=wrap;html=1;fontStyle=1;fillColor=#d5e8d4;strokeColor=#82b366;" vertex="1" parent="1">
          <mxGeometry x="727" y="680" width="100" height="40" as="geometry" />
        </mxCell>
        <mxCell id="M1R4KqAEDVB002fNjqC0-85" style="rounded=0;orthogonalLoop=1;jettySize=auto;html=1;exitX=0.5;exitY=0;exitDx=0;exitDy=0;entryX=0.5;entryY=1;entryDx=0;entryDy=0;dashed=1;" edge="1" parent="1" source="M1R4KqAEDVB002fNjqC0-15" target="M1R4KqAEDVB002fNjqC0-50">
          <mxGeometry relative="1" as="geometry" />
        </mxCell>
        <mxCell id="M1R4KqAEDVB002fNjqC0-93" style="rounded=0;orthogonalLoop=1;jettySize=auto;html=1;exitX=0.5;exitY=0;exitDx=0;exitDy=0;entryX=0.5;entryY=1;entryDx=0;entryDy=0;dashed=1;" edge="1" parent="1" source="M1R4KqAEDVB002fNjqC0-15" target="M1R4KqAEDVB002fNjqC0-50">
          <mxGeometry relative="1" as="geometry" />
        </mxCell>
        <mxCell id="M1R4KqAEDVB002fNjqC0-15" value="USER" style="ellipse;whiteSpace=wrap;html=1;fontStyle=1;fillColor=#d5e8d4;strokeColor=#82b366;" vertex="1" parent="1">
          <mxGeometry x="850" y="680" width="100" height="40" as="geometry" />
        </mxCell>
        <mxCell id="M1R4KqAEDVB002fNjqC0-84" style="rounded=0;orthogonalLoop=1;jettySize=auto;html=1;exitX=0.5;exitY=0;exitDx=0;exitDy=0;entryX=0.5;entryY=1;entryDx=0;entryDy=0;dashed=1;" edge="1" parent="1" source="M1R4KqAEDVB002fNjqC0-16" target="M1R4KqAEDVB002fNjqC0-50">
          <mxGeometry relative="1" as="geometry" />
        </mxCell>
        <mxCell id="M1R4KqAEDVB002fNjqC0-16" value="CUSTOMER" style="ellipse;whiteSpace=wrap;html=1;fontStyle=1;fillColor=#d5e8d4;strokeColor=#82b366;" vertex="1" parent="1">
          <mxGeometry x="20" y="680" width="100" height="40" as="geometry" />
        </mxCell>
        <mxCell id="M1R4KqAEDVB002fNjqC0-91" style="rounded=0;orthogonalLoop=1;jettySize=auto;html=1;exitX=0.5;exitY=0;exitDx=0;exitDy=0;entryX=0.5;entryY=1;entryDx=0;entryDy=0;dashed=1;" edge="1" parent="1" source="M1R4KqAEDVB002fNjqC0-17" target="M1R4KqAEDVB002fNjqC0-50">
          <mxGeometry relative="1" as="geometry">
            <mxPoint x="480" y="390" as="targetPoint" />
          </mxGeometry>
        </mxCell>
        <mxCell id="M1R4KqAEDVB002fNjqC0-17" value="METHOD" style="ellipse;whiteSpace=wrap;html=1;fontStyle=1;fillColor=#d5e8d4;strokeColor=#82b366;" vertex="1" parent="1">
          <mxGeometry x="600" y="680" width="100" height="40" as="geometry" />
        </mxCell>
        <mxCell id="M1R4KqAEDVB002fNjqC0-87" style="rounded=0;orthogonalLoop=1;jettySize=auto;html=1;exitX=0.5;exitY=0;exitDx=0;exitDy=0;entryX=0.5;entryY=1;entryDx=0;entryDy=0;dashed=1;" edge="1" parent="1" source="M1R4KqAEDVB002fNjqC0-18" target="M1R4KqAEDVB002fNjqC0-50">
          <mxGeometry relative="1" as="geometry" />
        </mxCell>
        <mxCell id="M1R4KqAEDVB002fNjqC0-18" value="ANALISIS" style="ellipse;whiteSpace=wrap;html=1;fontStyle=1;fillColor=#d5e8d4;strokeColor=#82b366;" vertex="1" parent="1">
          <mxGeometry x="140" y="680" width="100" height="40" as="geometry" />
        </mxCell>
        <mxCell id="M1R4KqAEDVB002fNjqC0-89" style="rounded=0;orthogonalLoop=1;jettySize=auto;html=1;exitX=0.5;exitY=0;exitDx=0;exitDy=0;entryX=0.5;entryY=1;entryDx=0;entryDy=0;dashed=1;" edge="1" parent="1" source="M1R4KqAEDVB002fNjqC0-19" target="M1R4KqAEDVB002fNjqC0-50">
          <mxGeometry relative="1" as="geometry">
            <mxPoint x="480" y="560" as="targetPoint" />
          </mxGeometry>
        </mxCell>
        <mxCell id="M1R4KqAEDVB002fNjqC0-19" value="TIM" style="ellipse;whiteSpace=wrap;html=1;fontStyle=1;fillColor=#d5e8d4;strokeColor=#82b366;" vertex="1" parent="1">
          <mxGeometry x="363" y="680" width="100" height="40" as="geometry" />
        </mxCell>
        <mxCell id="M1R4KqAEDVB002fNjqC0-90" style="rounded=0;orthogonalLoop=1;jettySize=auto;html=1;exitX=0.5;exitY=0;exitDx=0;exitDy=0;entryX=0.5;entryY=1;entryDx=0;entryDy=0;dashed=1;" edge="1" parent="1" source="M1R4KqAEDVB002fNjqC0-20" target="M1R4KqAEDVB002fNjqC0-50">
          <mxGeometry relative="1" as="geometry" />
        </mxCell>
        <mxCell id="M1R4KqAEDVB002fNjqC0-20" value="KONTAK" style="ellipse;whiteSpace=wrap;html=1;fontStyle=1;fillColor=#d5e8d4;strokeColor=#82b366;" vertex="1" parent="1">
          <mxGeometry x="480" y="680" width="100" height="40" as="geometry" />
        </mxCell>
        <mxCell id="M1R4KqAEDVB002fNjqC0-88" style="rounded=0;orthogonalLoop=1;jettySize=auto;html=1;exitX=0.5;exitY=0;exitDx=0;exitDy=0;entryX=0.5;entryY=1;entryDx=0;entryDy=0;dashed=1;" edge="1" parent="1" source="M1R4KqAEDVB002fNjqC0-21" target="M1R4KqAEDVB002fNjqC0-50">
          <mxGeometry relative="1" as="geometry">
            <mxPoint x="500" y="540" as="targetPoint" />
          </mxGeometry>
        </mxCell>
        <mxCell id="M1R4KqAEDVB002fNjqC0-21" value="TEST LIST" style="ellipse;whiteSpace=wrap;html=1;fontStyle=1;fillColor=#d5e8d4;strokeColor=#82b366;" vertex="1" parent="1">
          <mxGeometry x="250" y="680" width="100" height="40" as="geometry" />
        </mxCell>
        <mxCell id="M1R4KqAEDVB002fNjqC0-79" style="rounded=0;orthogonalLoop=1;jettySize=auto;html=1;exitX=1;exitY=0.5;exitDx=0;exitDy=0;entryX=0;entryY=0.5;entryDx=0;entryDy=0;dashed=1;" edge="1" parent="1" source="M1R4KqAEDVB002fNjqC0-26" target="M1R4KqAEDVB002fNjqC0-50">
          <mxGeometry relative="1" as="geometry" />
        </mxCell>
        <mxCell id="M1R4KqAEDVB002fNjqC0-105" style="rounded=0;orthogonalLoop=1;jettySize=auto;html=1;exitX=0.5;exitY=1;exitDx=0;exitDy=0;entryX=0.5;entryY=0;entryDx=0;entryDy=0;" edge="1" parent="1" source="M1R4KqAEDVB002fNjqC0-26" target="M1R4KqAEDVB002fNjqC0-29">
          <mxGeometry relative="1" as="geometry" />
        </mxCell>
        <mxCell id="M1R4KqAEDVB002fNjqC0-26" value="&lt;b&gt;APPROVE REPORT&lt;/b&gt;" style="ellipse;whiteSpace=wrap;html=1;fillColor=#d5e8d4;strokeColor=#82b366;" vertex="1" parent="1">
          <mxGeometry x="-140" y="150" width="100" height="40" as="geometry" />
        </mxCell>
        <mxCell id="M1R4KqAEDVB002fNjqC0-82" style="rounded=0;orthogonalLoop=1;jettySize=auto;html=1;exitX=0;exitY=0.5;exitDx=0;exitDy=0;entryX=1;entryY=0.5;entryDx=0;entryDy=0;dashed=1;" edge="1" parent="1" source="M1R4KqAEDVB002fNjqC0-27" target="M1R4KqAEDVB002fNjqC0-50">
          <mxGeometry relative="1" as="geometry" />
        </mxCell>
        <mxCell id="M1R4KqAEDVB002fNjqC0-104" style="rounded=0;orthogonalLoop=1;jettySize=auto;html=1;exitX=0;exitY=0.5;exitDx=0;exitDy=0;entryX=1;entryY=0.5;entryDx=0;entryDy=0;" edge="1" parent="1" source="M1R4KqAEDVB002fNjqC0-27" target="M1R4KqAEDVB002fNjqC0-26">
          <mxGeometry relative="1" as="geometry" />
        </mxCell>
        <mxCell id="M1R4KqAEDVB002fNjqC0-27" value="&lt;b&gt;INPUT&lt;/b&gt;" style="ellipse;whiteSpace=wrap;html=1;fillColor=#d5e8d4;strokeColor=#82b366;" vertex="1" parent="1">
          <mxGeometry x="920" y="150" width="100" height="40" as="geometry" />
        </mxCell>
        <mxCell id="M1R4KqAEDVB002fNjqC0-83" style="rounded=0;orthogonalLoop=1;jettySize=auto;html=1;exitX=0;exitY=0.5;exitDx=0;exitDy=0;entryX=1;entryY=0.5;entryDx=0;entryDy=0;dashed=1;" edge="1" parent="1" source="M1R4KqAEDVB002fNjqC0-28" target="M1R4KqAEDVB002fNjqC0-50">
          <mxGeometry relative="1" as="geometry" />
        </mxCell>
        <mxCell id="M1R4KqAEDVB002fNjqC0-103" style="rounded=0;orthogonalLoop=1;jettySize=auto;html=1;exitX=0.5;exitY=0;exitDx=0;exitDy=0;entryX=0.5;entryY=1;entryDx=0;entryDy=0;" edge="1" parent="1" source="M1R4KqAEDVB002fNjqC0-28" target="M1R4KqAEDVB002fNjqC0-27">
          <mxGeometry relative="1" as="geometry" />
        </mxCell>
        <mxCell id="M1R4KqAEDVB002fNjqC0-28" value="&lt;b&gt;LOGIN&lt;/b&gt;" style="ellipse;whiteSpace=wrap;html=1;fillColor=#d5e8d4;strokeColor=#82b366;" vertex="1" parent="1">
          <mxGeometry x="920" y="500" width="100" height="40" as="geometry" />
        </mxCell>
        <mxCell id="M1R4KqAEDVB002fNjqC0-80" style="rounded=0;orthogonalLoop=1;jettySize=auto;html=1;exitX=1;exitY=0.5;exitDx=0;exitDy=0;entryX=0;entryY=0.5;entryDx=0;entryDy=0;dashed=1;" edge="1" parent="1" source="M1R4KqAEDVB002fNjqC0-29" target="M1R4KqAEDVB002fNjqC0-50">
          <mxGeometry relative="1" as="geometry" />
        </mxCell>
        <mxCell id="M1R4KqAEDVB002fNjqC0-106" style="rounded=0;orthogonalLoop=1;jettySize=auto;html=1;exitX=0.5;exitY=1;exitDx=0;exitDy=0;entryX=0.5;entryY=0;entryDx=0;entryDy=0;" edge="1" parent="1" source="M1R4KqAEDVB002fNjqC0-29" target="M1R4KqAEDVB002fNjqC0-96">
          <mxGeometry relative="1" as="geometry" />
        </mxCell>
        <mxCell id="M1R4KqAEDVB002fNjqC0-29" value="&lt;b&gt;RELEASE REPORT&lt;/b&gt;" style="ellipse;whiteSpace=wrap;html=1;fillColor=#d5e8d4;strokeColor=#82b366;" vertex="1" parent="1">
          <mxGeometry x="-140" y="500" width="100" height="40" as="geometry" />
        </mxCell>
        <mxCell id="M1R4KqAEDVB002fNjqC0-50" value="&lt;font style=&quot;font-size: 30px;&quot;&gt;&lt;b&gt;LIMS&lt;/b&gt;&lt;/font&gt;" style="rounded=0;whiteSpace=wrap;html=1;fillColor=#f8cecc;strokeColor=#b85450;" vertex="1" parent="1">
          <mxGeometry x="350" y="260" width="230" height="120" as="geometry" />
        </mxCell>
        <mxCell id="M1R4KqAEDVB002fNjqC0-100" style="rounded=0;orthogonalLoop=1;jettySize=auto;html=1;exitX=0.5;exitY=0;exitDx=0;exitDy=0;entryX=0.5;entryY=1;entryDx=0;entryDy=0;dashed=1;" edge="1" parent="1" source="M1R4KqAEDVB002fNjqC0-98" target="M1R4KqAEDVB002fNjqC0-50">
          <mxGeometry relative="1" as="geometry" />
        </mxCell>
        <mxCell id="M1R4KqAEDVB002fNjqC0-98" value="LOKASI" style="ellipse;whiteSpace=wrap;html=1;fontStyle=1;fillColor=#d5e8d4;strokeColor=#82b366;" vertex="1" parent="1">
          <mxGeometry x="-100" y="680" width="100" height="40" as="geometry" />
        </mxCell>
      </root>
    </mxGraphModel>
  </diagram>
</mxfile>
